# xmcd
#
# Track frame offsets:
#	150
#	17082
#	33474
#	45638
#	67292
#	84505
#	98175
#	112933
#	124386
#	141474
#	156928
#	169320
#
# Disc length: 2398 seconds
# Revision: 0
# Processed by: cddbd v1.5.2PL0 Copyright (c) Steve Scherf et al.
# Submitted via: dBpowerAMP V12.0
#
DISCID=ab095c0c
DTITLE=Town Mountain - Leave The Bottle
DYEAR=2012
DGENRE=Country
TTITLE0=Lookin in the Mirror
TTITLE1=Leave the Bottle
TTITLE2=Up the Ladder
TTITLE3=Lawdog
TTITLE4=Loaded
TTITLE5=Four Miles
TTITLE6=Away From Home
TTITLE7=You Weighed Heavy on My Heart
TTITLE8=Heavy Stone
TTITLE9=Run Junior Run
TTITLE10=Greenbud on the Flower
TTITLE11=Don't Go Home Tonight
EXTD=
EXTT0=
EXTT1=
EXTT2=
EXTT3=
EXTT4=
EXTT5=
EXTT6=
EXTT7=
EXTT8=
EXTT9=
EXTT10=
EXTT11=
PLAYORDER=
